# xmcd
#
# Track frame offsets: 
#        150
#        24548
#        65941
#        90627
#        128173
#        149358
#        170657
#        193980
#        236028
#
# Disc length: 3615 seconds
#
# Revision: 1
# Processed by: cddbd v1.5.2PL0 Copyright (c) Steve Scherf et al.
# Submitted via: ExactAudioCopy v0.99pb3
#
DISCID=890e1d09
DTITLE=Danny B ryant's Red Eye Band - Live
DYEAR=2007
DGENRE=Blues
TTITLE0=Heartbreaker
TTITLE1=Slow Blues/Sweet Little ANgel
TTITLE2=Hideaway/Bring Your Fine Self Home
TTITLE3=Girl From The North Country
TTITLE4=Play To Win, Born To Lose
TTITLE5=Last Man Standing
TTITLE6=This Is The Blues
TTITLE7=Always With Me
TTITLE8=Good Time Woman
EXTD=
EXTT0=
EXTT1=
EXTT2=
EXTT3=
EXTT4=
EXTT5=
EXTT6=
EXTT7=
EXTT8=
PLAYORDER=
